<svg width="19" height="12" fill="none" xmlns="http://www.w3.org/2000/svg">
    <path d="M2.057 1.793 3.11 2.859 2.057 1.793zm.707.004L3.83.742 2.764 1.797zm-.711.703 1.066-1.055L2.053 2.5zm7.14 7.219 1.067-1.055-1.067 1.055zm.628.067.734-1.308-.792-.444-.76.496.818 1.256zm.607-.092 1.088 1.034-1.088-1.034zm6.53-6.873 1.088 1.033-1.087-1.033zm-.018-.707L15.907 3.2l1.033-1.087zm-.707.018 1.088 1.033-1.088-1.033zM9.797 8.907 8.73 9.962l1.088 1.1 1.065-1.122-1.087-1.033zM3.111 2.859a1 1 0 0 1-1.414-.007L3.83.742A2 2 0 0 0 1.002.727l2.11 2.132zm.008-1.414a1 1 0 0 1-.008 1.414L1.001.727a2 2 0 0 0-.015 2.828l2.133-2.11zm7.14 7.219L3.12 1.445.986 3.555l7.14 7.219 2.134-2.11zM9.004 8.53a1 1 0 0 1 1.257.134l-2.133 2.11a2 2 0 0 0 2.513.27L9.003 8.53zm.338.131a1 1 0 0 1 1.214-.183l-1.467 2.617a2 2 0 0 0 2.428-.367L9.34 8.66zm6.53-6.873L9.341 8.66l2.175 2.067 6.53-6.874-2.175-2.066zm.036 1.413a1 1 0 0 1-.036-1.413l2.175 2.066a2 2 0 0 0-.072-2.828l-2.067 2.175zm1.414-.036a1 1 0 0 1-1.414.036l2.067-2.175a2 2 0 0 0-2.828.073l2.175 2.066zM10.884 9.94l6.437-6.775L15.146 1.1 8.709 7.874l2.175 2.066zM1.697 2.852l7.034 7.11 2.132-2.11L3.83.742l-2.133 2.11z" fill="#005591"/>
</svg>
