<svg width="32" height="20" fill="none" xmlns="http://www.w3.org/2000/svg">
    <path d="M3.093 3.352 1.335 1.574l1.758 1.778zm.707.003 1.777-1.758L3.8 3.355zm-.711.704L1.312 5.817l1.777-1.758zm12.646 12.784 1.777-1.758-1.777 1.758zm.563.103.814-2.364-.944-.324-.907.414 1.037 2.274zm.525-.128-1.812-1.722 1.812 1.722zM28.92 4.084l-1.813-1.721 1.813 1.721zm-.018-.706 1.722-1.813-1.722 1.813zm-.707.018-1.813-1.722 1.813 1.722zm-11.931 12.56-1.778 1.758 1.814 1.833 1.776-1.87-1.813-1.722zM4.85 5.128a2 2 0 0 1-2.829-.015l3.555-3.517a3 3 0 0 0-4.242-.023L4.85 5.13zM4.866 2.3a2 2 0 0 1-.015 2.828L1.335 1.574a3 3 0 0 0-.023 4.243L4.866 2.3zm12.646 12.784L4.866 2.3 1.312 5.817 13.957 18.6l3.555-3.516zm-2.251-.413a2 2 0 0 1 2.251.413L13.957 18.6a3 3 0 0 0 3.378.62l-2.074-4.55zm-.25.424a2 2 0 0 1 2.1-.514l-1.627 4.728a3 3 0 0 0 3.152-.77l-3.625-3.444zM27.108 2.363 15.01 15.096l3.625 3.444L30.733 5.806l-3.625-3.443zm.072 2.827a2 2 0 0 1-.072-2.827l3.625 3.443a3 3 0 0 0-.11-4.24L27.18 5.19zm2.828-.072a2 2 0 0 1-2.828.072l3.444-3.625a3 3 0 0 0-4.241.109l3.625 3.444zm-11.932 12.56 11.931-12.56-3.625-3.444-11.931 12.56 3.625 3.443zM2.022 5.113l12.464 12.6 3.555-3.517-12.464-12.6-3.555 3.517z" fill="#fff"/>
</svg>
